<svg 
 xmlns="http://www.w3.org/2000/svg"
 xmlns:xlink="http://www.w3.org/1999/xlink"
 width="211px" height="96px">
<path fill-rule="evenodd"  fill="rgb(156, 155, 163)"
 d="M209.733,60.366 L209.613,59.830 L209.899,59.766 C210.267,59.734 210.486,59.872 210.555,60.182 L209.733,60.366 ZM204.276,60.461 L203.898,59.945 L203.834,59.660 C204.429,59.526 204.863,59.341 205.136,59.106 C206.269,59.027 206.857,59.083 206.900,59.274 L207.372,58.868 L207.658,58.804 L207.786,59.376 L205.606,59.864 L204.276,60.461 ZM134.440,84.115 L134.320,83.579 L135.142,83.395 L135.262,83.931 L134.440,84.115 ZM195.199,6.803 L195.592,6.715 C197.195,6.056 198.141,5.694 198.427,5.630 L198.737,6.011 C194.364,9.166 191.963,10.791 191.534,10.887 L191.630,11.316 L192.238,11.180 C192.507,10.820 193.538,10.227 195.330,9.400 L195.378,9.615 C195.253,9.843 192.529,11.978 187.204,16.022 C183.289,19.099 181.053,21.126 180.496,22.100 L180.536,22.279 C180.669,22.650 181.092,22.918 181.804,23.084 C185.721,21.357 188.608,20.286 190.467,19.870 L191.932,19.542 C193.099,19.281 194.034,19.210 194.736,19.328 C194.942,19.131 195.200,18.999 195.510,18.929 L196.332,18.745 C196.487,19.437 197.600,19.550 199.673,19.086 L199.983,19.467 C199.753,19.669 199.567,19.785 199.424,19.817 C199.488,20.103 200.373,20.481 202.079,20.950 L202.800,22.327 L203.127,23.792 C203.062,25.959 201.506,29.071 198.462,33.129 C198.176,33.193 196.149,35.823 192.383,41.019 C188.483,46.845 185.810,50.495 184.363,51.969 L184.315,51.755 L184.739,50.797 L184.691,50.583 L181.761,54.090 L181.849,54.483 C182.552,53.601 183.105,53.114 183.511,53.023 C179.773,57.787 176.467,61.516 173.592,64.211 L173.116,64.092 C172.189,65.072 171.217,65.901 170.203,66.594 C171.016,66.372 172.276,65.1000 174.023,65.465 L174.087,65.751 C176.699,64.792 182.700,62.874 192.089,59.998 L192.209,60.534 C191.851,60.614 191.734,60.928 191.856,61.476 L191.034,61.660 L189.740,62.249 L189.676,61.964 C184.338,63.933 180.298,65.225 177.559,65.838 L177.023,65.958 C176.617,66.048 176.270,66.226 175.979,66.491 C175.812,66.529 175.707,66.452 175.665,66.261 C173.057,67.245 168.449,68.563 161.840,70.217 L161.967,70.789 L162.253,70.725 C167.423,69.569 172.408,68.253 177.207,66.780 L177.335,67.351 C176.596,67.517 175.540,67.941 174.167,68.623 C173.171,68.645 172.602,68.673 172.459,68.705 L169.771,69.606 C169.851,69.964 170.165,70.081 170.713,69.959 C170.903,69.916 171.159,69.771 171.479,69.524 C171.669,69.482 171.962,69.504 172.357,69.591 C175.726,68.662 179.852,67.363 184.732,65.696 L184.668,65.411 L183.374,66.000 C182.945,66.096 182.554,66.083 182.203,65.962 L180.623,66.616 L177.871,67.231 L177.743,66.660 L179.959,66.164 L182.619,65.306 L182.675,65.556 L183.190,65.178 C183.357,65.141 183.459,65.205 183.497,65.372 L184.834,64.810 L186.729,64.387 C186.919,64.344 187.033,64.406 187.070,64.573 C187.824,64.029 188.975,63.584 190.524,63.237 L191.882,62.934 C192.263,62.848 192.515,63.079 192.638,63.628 L195.862,62.606 L195.926,62.892 C197.638,61.933 199.578,61.212 201.746,60.727 L202.152,61.199 C202.237,61.580 202.101,61.811 201.744,61.891 L201.172,62.019 C200.766,62.109 200.388,62.094 200.036,61.973 C198.371,62.920 197.241,63.461 196.646,63.594 L192.822,64.450 L192.886,64.736 C193.013,65.082 193.232,65.221 193.542,65.152 C196.834,64.215 199.335,63.368 201.042,62.611 C201.393,62.732 201.772,62.748 202.178,62.657 C201.578,64.117 200.719,64.972 199.599,65.223 C178.805,71.801 166.490,75.519 162.655,76.377 L162.591,76.091 L162.119,76.497 L159.081,77.176 L156.429,78.070 L156.485,78.320 L164.418,76.545 C165.348,76.337 166.699,75.947 168.472,75.376 L168.878,75.848 C167.489,76.459 163.640,77.707 157.333,79.594 L157.269,79.308 C157.078,79.351 157.004,79.467 157.047,79.658 C153.701,80.581 151.253,81.217 149.705,81.563 L146.703,82.235 L145.123,82.888 C144.932,82.931 144.816,82.857 144.773,82.666 L142.907,83.384 L135.795,84.975 C135.604,85.018 135.488,84.943 135.446,84.753 L134.973,85.159 L132.758,85.654 C132.400,85.734 132.182,85.596 132.102,85.238 C132.292,85.196 132.366,85.079 132.324,84.888 L134.317,84.743 C134.961,84.599 135.761,84.319 136.719,83.905 L137.319,84.071 C137.991,83.720 138.613,83.481 139.185,83.353 C139.105,82.996 138.874,82.860 138.494,82.945 C138.221,83.181 137.882,83.345 137.477,83.435 L137.357,82.899 L138.715,82.595 L138.652,82.310 C136.642,82.384 134.409,82.696 131.956,83.245 L131.892,82.959 L131.384,83.372 L128.382,84.044 C125.999,84.577 123.512,85.033 120.920,85.413 L117.475,86.784 C113.458,87.282 111.128,87.604 110.485,87.748 C109.974,88.262 109.469,88.575 108.969,88.687 C108.179,88.288 107.487,88.156 106.891,88.289 L106.827,88.003 L107.281,86.175 L106.875,85.703 C106.769,85.226 106.899,84.522 107.266,83.589 L106.666,83.423 L105.558,83.671 C105.707,84.338 105.460,84.969 104.818,85.563 L104.282,85.683 C104.457,84.117 104.815,82.699 105.356,81.427 L105.606,81.371 C106.155,81.249 106.529,81.640 106.732,82.545 L107.304,82.418 C107.661,82.338 107.800,82.119 107.720,81.762 L106.698,78.538 C107.393,77.731 108.410,73.665 109.748,66.335 C110.338,64.727 110.463,63.160 110.122,61.635 C109.765,61.715 109.546,61.577 109.466,61.219 C110.069,60.784 110.619,58.935 111.115,55.672 C114.385,42.782 117.607,28.051 120.780,11.480 L121.066,11.416 C121.326,11.684 121.501,12.020 121.592,12.424 L122.128,12.305 C122.471,9.926 122.869,8.686 123.322,8.585 L123.700,9.101 C123.801,9.554 123.482,11.539 122.743,15.056 L124.035,15.630 C125.385,13.728 126.203,10.955 126.490,7.313 L127.026,7.193 C127.197,8.857 127.326,9.878 127.412,10.259 L127.927,9.881 C128.296,9.849 128.514,9.988 128.583,10.297 C128.519,11.688 128.503,12.454 128.535,12.597 L127.963,12.725 L127.289,10.887 L127.003,10.951 C126.232,12.650 125.970,14.047 126.215,15.143 L126.279,15.429 C126.469,15.386 126.762,15.408 127.157,15.495 C127.278,15.143 127.294,14.764 127.203,14.359 L127.739,14.239 C127.524,17.415 126.035,25.803 123.274,39.405 C121.934,47.060 120.785,52.208 119.825,54.849 C119.721,56.849 119.335,58.086 118.666,58.561 C118.629,58.394 118.514,58.332 118.324,58.375 C118.537,59.328 118.290,60.347 117.582,61.430 C117.460,61.783 117.445,62.161 117.536,62.566 L117.600,62.852 L118.136,62.732 C118.216,63.090 118.077,63.308 117.719,63.388 L117.127,63.258 C117.250,63.806 116.762,65.929 115.663,69.627 L115.847,70.449 L116.669,70.265 L116.725,70.516 C116.439,70.580 116.112,70.853 115.745,71.335 L116.150,71.807 L116.270,72.343 L115.734,72.463 L115.614,71.927 L114.652,74.169 C114.555,74.516 114.551,74.892 114.642,75.297 L114.770,75.869 L115.306,75.749 L115.426,76.285 C115.485,76.547 115.272,76.882 114.788,77.291 L114.502,77.355 L114.668,76.755 L114.382,76.819 C113.834,76.941 113.565,77.865 113.576,79.588 C113.645,79.898 114.550,80.084 116.289,80.145 C116.480,80.102 116.554,79.985 116.511,79.795 L118.469,79.657 C118.946,79.550 121.390,78.903 125.803,77.716 C128.395,77.336 130.060,77.064 130.799,76.899 L131.307,76.485 C131.659,76.606 132.050,76.619 132.479,76.523 L133.551,76.283 C134.217,76.134 135.018,75.855 135.953,75.446 C136.143,75.403 136.260,75.477 136.303,75.668 L138.990,74.766 L142.528,73.975 C142.719,73.932 142.836,74.006 142.878,74.196 C143.193,73.926 143.445,73.769 143.636,73.727 C147.734,72.810 151.527,71.761 155.016,70.581 C155.206,70.538 155.323,70.612 155.366,70.802 L166.689,67.406 L167.289,67.572 C167.580,67.307 167.928,67.129 168.333,67.038 C168.524,66.996 168.641,67.069 168.683,67.260 C168.998,66.989 169.250,66.833 169.441,66.791 C169.533,66.770 169.685,66.729 169.816,66.696 C168.595,66.392 167.929,66.128 167.855,65.907 C170.337,62.800 171.569,61.149 171.550,60.953 L171.406,60.309 L171.192,60.357 C170.477,60.517 169.282,61.660 167.606,63.786 C167.320,63.850 167.145,63.739 167.081,63.453 C171.623,57.809 177.408,50.849 184.437,42.571 C188.675,37.020 192.055,32.336 194.578,28.519 L194.591,26.565 L194.495,26.136 C194.431,25.850 193.866,25.614 192.798,25.428 C189.629,26.136 185.702,28.041 181.017,31.140 L180.803,31.188 L180.707,30.759 C181.279,30.631 181.821,30.148 182.333,29.307 L182.285,29.093 C180.562,29.778 179.415,30.185 178.843,30.313 C178.457,30.375 178.018,30.035 177.527,29.294 C176.574,29.507 175.295,28.993 173.692,27.751 C173.509,26.934 173.491,26.106 173.550,25.274 C168.570,33.631 163.239,42.484 157.543,51.852 L149.628,66.457 L149.369,66.140 C149.517,65.457 149.789,64.720 150.188,63.930 L150.148,63.751 L147.957,67.206 L147.778,67.246 C146.816,66.861 146.319,66.597 146.287,66.454 C146.393,66.030 146.725,65.281 147.285,64.204 C147.227,63.942 147.113,63.717 146.947,63.530 C147.220,62.518 147.328,60.817 147.269,58.429 C148.271,46.247 149.734,35.562 151.656,26.376 C152.230,24.021 152.543,22.400 152.595,21.512 L152.774,21.472 L153.171,21.571 C153.678,18.581 154.049,16.885 154.284,16.481 L154.463,16.441 L154.543,16.799 C154.617,17.133 154.578,17.517 154.425,17.951 C154.452,18.070 154.551,18.236 154.724,18.447 C154.537,20.965 154.331,22.563 154.107,23.238 L154.187,23.596 L154.365,23.556 L155.894,14.620 L156.251,14.540 L156.291,14.719 C156.223,15.535 156.211,16.038 156.254,16.228 C156.502,16.223 156.648,16.315 156.691,16.506 L156.475,18.055 L156.872,18.154 C156.766,17.678 156.831,17.413 157.070,17.359 L157.150,17.717 L157.045,19.766 C157.217,19.978 157.317,20.143 157.344,20.262 C154.909,32.641 153.387,42.725 152.779,50.517 L152.958,50.477 C156.966,42.450 162.574,32.627 169.782,21.007 C170.859,19.340 173.942,13.997 179.030,4.979 C179.785,3.659 180.310,2.929 180.604,2.788 C180.847,2.759 180.993,2.851 181.041,3.065 C177.592,8.115 175.927,10.902 176.044,11.426 C177.934,8.802 179.253,6.705 180.003,5.136 L180.182,5.096 C180.446,5.163 180.638,5.182 180.758,5.155 L183.168,1.839 C183.417,1.834 183.563,1.926 183.606,2.116 C180.447,6.226 178.385,9.476 177.419,11.869 L177.598,11.829 C177.764,11.791 179.003,9.838 181.315,5.969 C181.458,5.937 182.288,4.950 183.805,3.010 L183.845,3.188 L184.163,2.930 L184.342,2.890 L184.421,3.247 L182.310,7.059 L182.488,7.019 C182.906,6.426 183.150,6.121 183.222,6.105 L183.401,6.065 L183.441,6.244 L175.148,20.475 C175.922,19.175 176.986,17.855 178.308,16.516 C179.532,14.540 181.037,12.150 182.821,9.347 L182.861,9.525 C181.712,11.486 180.531,13.491 179.335,15.518 C180.149,14.765 181.020,14.009 182.005,13.244 C182.324,12.548 185.033,10.341 190.130,6.623 C195.535,3.388 200.025,1.370 203.599,0.571 L204.028,0.475 L204.116,0.868 C202.615,1.654 199.627,3.561 195.151,6.588 L195.199,6.803 ZM200.512,22.839 C200.267,21.743 199.382,21.365 197.857,21.706 L197.679,21.746 L197.552,22.188 C197.886,22.113 198.888,22.402 200.560,23.053 L200.512,22.839 ZM199.214,25.756 C199.320,26.008 199.492,26.107 199.731,26.053 L199.643,25.660 C199.579,25.374 199.404,25.263 199.118,25.327 L199.214,25.756 ZM200.281,24.654 L200.495,24.606 L200.399,24.177 C199.911,23.561 198.880,23.204 197.307,23.105 L197.093,23.153 L197.141,23.368 C197.450,23.299 198.497,23.728 200.281,24.654 ZM197.093,26.005 C197.204,26.281 197.368,26.394 197.582,26.346 L197.796,26.298 L197.701,25.869 C197.637,25.584 197.473,25.470 197.211,25.529 L196.997,25.577 L197.093,26.005 ZM164.423,71.366 L164.017,70.893 C163.826,70.936 163.753,71.052 163.795,71.243 L162.373,71.261 C162.027,71.389 161.888,71.607 161.957,71.917 L164.423,71.366 ZM108.167,86.277 L107.595,86.405 L107.651,86.655 C107.808,87.020 108.041,87.169 108.351,87.099 L108.167,86.277 ZM121.061,16.596 C120.741,16.843 120.486,16.987 120.295,17.030 L120.479,17.852 C120.765,17.788 121.054,17.348 121.347,16.532 L121.061,16.596 ZM119.612,25.551 C119.516,25.122 119.667,24.513 120.066,23.723 L119.763,22.365 C120.390,22.150 120.693,20.932 120.671,18.710 L120.607,18.424 C120.123,18.832 119.765,20.251 119.533,22.679 C119.441,23.276 119.228,23.611 118.895,23.685 L119.326,25.615 L119.612,25.551 ZM118.520,28.385 L118.806,28.321 C119.103,27.079 119.215,26.291 119.140,25.957 C118.878,26.016 118.610,26.551 118.336,27.563 L118.520,28.385 ZM138.937,82.246 L142.475,81.454 C142.666,81.412 142.783,81.485 142.825,81.676 C143.020,81.432 143.643,81.193 144.691,80.958 L144.635,80.708 L141.061,81.508 C140.656,81.598 140.266,81.586 139.890,81.470 C139.622,81.729 139.286,81.905 138.881,81.995 L138.937,82.246 ZM146.590,75.355 C145.541,75.590 144.097,76.012 142.258,76.624 C142.091,76.662 141.987,76.585 141.944,76.394 L140.364,77.048 L136.504,77.911 L136.568,78.197 L139.606,77.518 L139.662,77.768 L140.142,77.398 L147.254,75.807 C147.169,75.426 146.947,75.275 146.590,75.355 ZM151.522,74.252 L147.412,75.171 L147.476,75.457 C148.381,75.255 149.498,75.104 150.828,75.007 C151.142,74.737 151.395,74.580 151.586,74.538 L151.522,74.252 ZM153.452,73.820 L152.344,74.068 L152.408,74.354 L153.516,74.106 L153.452,73.820 ZM155.576,73.082 C155.255,73.329 154.1000,73.474 154.810,73.516 L154.874,73.802 L156.517,73.434 C156.438,73.077 156.123,72.960 155.576,73.082 ZM161.329,71.795 L159.971,72.099 L160.027,72.349 L161.385,72.045 L161.329,71.795 ZM180.825,55.613 C181.381,55.188 181.662,54.825 181.670,54.523 L181.456,54.571 C180.876,55.001 180.595,55.364 180.611,55.661 L180.825,55.613 ZM179.933,50.784 C179.766,50.821 177.176,53.502 172.163,58.827 L171.948,58.875 L172.044,59.303 L173.081,59.072 C176.483,55.383 178.839,52.605 180.147,50.736 L179.933,50.784 ZM182.011,51.182 C179.189,54.115 175.698,58.023 171.537,62.907 C170.588,64.145 169.935,64.804 169.578,64.884 C169.684,65.135 169.857,65.234 170.094,65.181 C171.600,64.418 175.703,59.723 182.404,51.094 L182.011,51.182 ZM149.334,52.563 C149.572,52.510 149.652,52.304 149.572,51.947 L149.492,51.590 L149.313,51.630 L149.334,52.563 ZM149.878,49.289 C149.639,49.343 149.487,50.002 149.420,51.268 L149.452,51.411 L149.595,51.379 C149.617,50.473 149.724,49.837 149.918,49.468 L149.878,49.289 ZM150.108,63.573 L150.466,63.493 L150.842,62.658 L150.802,62.479 C150.480,63.052 150.235,63.357 150.068,63.394 L150.108,63.573 ZM151.753,41.064 L151.610,41.096 L151.132,45.669 L151.172,45.848 L151.350,45.808 C151.286,45.522 151.434,44.001 151.793,41.243 L151.753,41.064 ZM152.166,38.720 L152.127,38.542 L151.948,38.582 C151.880,39.398 151.854,39.841 151.870,39.912 C152.108,39.859 152.207,39.462 152.166,38.720 ZM151.846,45.509 C151.980,46.105 151.581,48.796 150.650,53.582 L150.730,53.939 C151.135,53.849 151.626,51.012 152.204,45.429 L151.846,45.509 ZM180.816,9.608 C181.006,9.565 181.191,9.274 181.371,8.733 L181.013,8.813 C181.067,9.051 180.974,9.197 180.736,9.250 L180.816,9.608 ZM153.855,33.689 L154.213,33.609 C155.563,25.777 156.368,21.381 156.629,20.422 L156.469,19.708 L156.290,19.748 L153.815,33.510 L153.855,33.689 ZM152.945,41.361 L153.759,35.775 L153.719,35.596 L153.540,35.636 C153.087,38.640 152.788,40.382 152.646,40.864 L152.766,41.401 L152.945,41.361 ZM153.168,55.608 C153.001,55.646 152.862,55.864 152.751,56.264 L152.791,56.443 C152.958,56.406 153.096,56.187 153.208,55.787 L153.168,55.608 ZM154.447,53.108 C154.238,53.180 154.157,53.323 154.205,53.537 L154.245,53.716 L154.567,53.644 C154.535,53.501 154.554,53.309 154.626,53.068 L154.447,53.108 ZM155.933,50.524 C155.710,50.649 155.539,51.000 155.418,51.577 L155.775,51.497 C155.733,51.307 155.845,50.969 156.112,50.484 L155.933,50.524 ZM157.708,47.725 L157.387,47.797 C156.554,49.109 156.176,49.932 156.250,50.265 C157.106,48.723 157.605,47.936 157.748,47.904 L157.708,47.725 ZM158.738,45.618 C158.571,45.656 158.340,46.021 158.045,46.712 L158.402,46.632 C158.322,46.274 158.461,46.056 158.818,45.976 L158.738,45.618 ZM162.760,38.602 C162.593,38.639 161.427,40.639 159.261,44.601 L159.082,44.641 L159.154,44.962 C160.536,42.978 161.752,40.917 162.800,38.781 L162.760,38.602 ZM164.626,35.370 L163.933,36.463 L164.111,36.423 C164.278,36.386 164.509,36.022 164.805,35.330 L164.626,35.370 ZM170.024,23.768 C169.688,24.393 169.526,24.730 169.537,24.777 L169.715,24.737 L170.202,23.728 L170.024,23.768 ZM171.966,20.706 C171.799,20.744 171.568,21.109 171.272,21.800 L171.312,21.978 C171.479,21.941 171.756,21.504 172.144,20.666 L171.966,20.706 ZM166.493,35.328 C166.536,35.519 166.470,35.783 166.296,36.122 L166.653,36.042 C166.589,35.756 167.260,34.618 168.666,32.627 C170.512,29.411 172.160,26.725 173.611,24.564 C173.796,23.349 174.225,22.118 174.919,20.868 L166.493,35.328 ZM178.249,25.643 C179.254,26.444 180.268,26.730 181.293,26.500 L181.471,26.460 L181.375,26.032 C179.854,25.496 178.939,25.263 178.630,25.332 L178.201,25.428 L178.249,25.643 ZM177.969,24.392 L178.576,24.256 L178.528,24.042 C178.470,23.780 178.309,23.678 178.047,23.736 L177.833,23.784 L177.969,24.392 ZM176.526,26.666 C176.638,26.941 177.047,27.150 177.755,27.292 L177.707,27.078 C177.145,26.578 176.821,26.138 176.736,25.756 L176.342,25.844 L176.526,26.666 ZM191.416,11.364 C190.439,11.583 187.913,13.599 183.838,17.413 L184.231,17.325 C184.493,17.266 186.917,15.410 191.504,11.757 L191.416,11.364 ZM115.576,73.099 L116.168,73.229 C116.022,74.813 115.735,75.653 115.306,75.749 L115.242,75.463 C115.194,75.249 115.305,74.460 115.576,73.099 ZM157.184,19.548 C157.471,18.258 157.697,17.594 157.864,17.557 L157.944,17.914 C157.657,19.204 157.430,19.868 157.264,19.905 L157.184,19.548 ZM143.850,19.829 L136.898,61.049 C136.432,65.006 135.331,68.029 133.598,70.118 C133.768,70.881 133.181,71.612 131.837,72.313 C131.885,72.528 131.700,72.819 131.282,73.188 L130.782,73.300 C130.585,72.418 130.690,71.381 131.099,70.189 L130.939,69.475 C130.865,69.141 130.672,69.009 130.363,69.078 C130.070,70.119 129.946,70.735 129.988,70.926 L129.524,71.030 C129.713,65.058 130.192,61.161 130.961,59.338 C132.681,46.119 135.408,31.187 139.139,14.541 C139.497,14.461 139.647,14.014 139.590,13.201 L140.055,13.097 L140.320,15.290 L140.785,15.186 L141.985,12.666 L142.033,12.880 C142.130,16.111 141.651,20.008 140.596,24.572 L140.651,24.822 L140.902,24.766 C141.718,19.805 142.246,17.248 142.488,17.094 L143.452,16.878 L143.508,17.128 C143.404,18.228 143.397,18.979 143.488,19.384 L143.850,19.829 ZM133.174,68.224 C132.607,68.601 132.423,69.231 132.620,70.112 L132.668,70.326 L132.883,70.278 C132.846,70.112 133.109,69.390 133.674,68.112 L133.174,68.224 ZM136.565,50.504 C136.423,51.436 136.366,51.962 136.392,52.081 C136.607,52.033 136.819,51.473 137.029,50.400 L136.565,50.504 ZM107.509,70.588 L107.131,70.072 L107.611,69.702 L107.897,69.638 L107.953,69.889 C108.039,70.270 107.890,70.503 107.509,70.588 ZM99.922,44.891 L100.136,44.843 C100.420,43.429 101.107,41.412 102.197,38.791 L102.285,39.184 C101.035,43.216 100.011,47.249 99.212,51.280 C97.436,57.431 95.913,63.151 94.645,68.438 C93.144,72.577 91.188,76.303 88.778,79.620 C87.171,80.380 85.868,81.321 84.869,82.445 L84.691,82.485 L84.595,82.056 C85.142,81.934 85.371,81.670 85.281,81.265 L85.241,81.086 L83.815,81.593 C80.659,81.799 78.135,81.363 76.243,80.285 C75.142,79.280 73.987,77.024 72.777,73.517 C72.862,73.223 72.888,73.005 72.856,72.862 C72.824,72.719 72.707,72.533 72.506,72.302 C71.781,69.062 71.763,65.126 72.453,60.493 C72.227,57.917 72.963,52.874 74.660,45.364 L77.925,34.126 L78.568,33.983 L78.258,33.602 C78.892,32.409 79.394,30.796 79.764,28.761 L80.158,28.674 L80.246,29.067 C80.751,28.754 80.950,28.359 80.844,27.882 C81.082,27.829 81.516,27.869 82.147,28.003 C79.137,38.259 77.680,43.600 77.776,44.029 L77.824,44.244 L78.039,44.196 C80.267,36.267 81.881,30.952 82.878,28.253 L83.057,28.213 L83.153,28.641 L82.895,29.337 L82.943,29.551 C83.013,29.861 83.145,30.119 83.342,30.325 C81.169,38.842 80.066,43.530 80.033,44.387 L80.212,44.347 L82.068,40.067 L82.156,40.460 C77.852,54.657 76.239,65.063 77.319,71.676 C78.869,73.906 80.441,74.842 82.038,74.485 C83.729,74.107 85.919,72.041 88.607,68.287 C90.688,64.395 92.015,60.432 92.590,56.401 C95.049,46.820 96.593,40.245 97.221,36.677 C97.424,35.906 97.620,35.499 97.811,35.457 L97.907,35.886 L98.122,35.838 L98.074,35.623 C97.878,35.417 97.745,35.159 97.675,34.849 C98.005,32.524 98.806,30.343 100.077,28.308 C100.811,24.541 101.582,22.567 102.393,22.386 C102.768,20.601 103.076,19.681 103.314,19.628 L103.402,20.021 C103.026,22.257 102.767,23.390 102.624,23.422 L102.446,23.462 L101.969,23.344 C100.909,26.883 100.425,28.855 100.516,29.260 L101.114,28.076 L101.292,28.036 L101.332,28.215 L100.691,32.899 C101.501,32.717 102.138,31.425 102.601,29.019 L103.405,27.751 L103.798,27.663 L99.874,44.677 L99.922,44.891 ZM75.607,63.015 C75.298,64.210 75.222,65.153 75.376,65.843 C75.734,65.763 75.957,64.863 76.048,63.141 L75.607,63.015 ZM75.851,72.830 L75.461,72.091 L75.246,72.139 L75.334,72.533 L75.868,73.914 L76.083,73.866 L75.851,72.830 ZM88.379,78.846 C88.594,78.798 88.809,78.475 89.026,77.875 L88.811,77.923 L87.951,78.942 L88.379,78.846 ZM82.464,81.257 L83.501,81.025 C85.240,80.636 86.416,79.798 87.028,78.510 L86.814,78.558 C84.930,79.980 83.739,80.747 83.238,80.859 C83.095,80.891 83.011,80.848 82.984,80.728 C82.748,80.906 82.559,81.011 82.416,81.043 L82.464,81.257 ZM86.087,75.306 L86.039,75.091 L85.824,75.139 C85.477,75.492 85.030,75.730 84.483,75.852 L84.531,76.067 L85.138,75.931 C85.532,75.568 85.848,75.359 86.087,75.306 ZM84.124,78.109 L84.076,77.894 L83.254,78.078 L83.302,78.293 L84.124,78.109 ZM77.322,79.405 C79.449,80.081 80.942,80.322 81.799,80.130 L82.193,80.042 L82.145,79.828 C79.636,79.238 78.084,79.010 77.488,79.143 L77.274,79.191 L77.322,79.405 ZM76.906,77.547 C77.243,77.822 77.435,78.067 77.483,78.281 L78.126,78.137 C77.702,77.582 77.353,77.310 77.081,77.320 L76.866,77.368 L76.906,77.547 ZM77.406,46.063 L77.799,45.975 L77.663,45.368 L77.448,45.416 C77.480,45.559 77.466,45.775 77.406,46.063 ZM77.872,44.458 C77.615,44.541 77.514,44.701 77.567,44.939 L77.615,45.153 L78.008,45.066 L77.872,44.458 ZM79.627,46.430 C79.865,46.376 79.990,45.986 80.002,45.257 L79.954,45.043 L79.740,45.091 C79.643,45.888 79.605,46.335 79.627,46.430 ZM77.346,51.668 L77.775,51.572 C78.024,50.116 78.099,49.161 77.997,48.708 L77.949,48.494 L77.735,48.542 C77.449,50.507 77.320,51.549 77.346,51.668 ZM77.624,46.202 L77.446,46.242 C76.735,47.652 76.476,48.786 76.668,49.643 C76.858,49.601 77.177,48.454 77.624,46.202 ZM78.765,77.131 C77.966,76.134 77.237,75.447 76.577,75.069 L76.665,75.462 C77.320,76.492 78.036,77.120 78.812,77.346 L78.765,77.131 ZM79.052,75.566 L79.100,75.780 C79.660,76.381 80.213,76.620 80.762,76.497 C80.294,75.976 79.725,75.666 79.052,75.566 ZM83.678,77.120 L81.593,77.362 L80.378,77.634 L80.426,77.848 C81.604,77.860 82.384,77.823 82.765,77.737 L83.726,77.335 L83.678,77.120 ZM83.860,74.078 L83.948,74.471 L84.377,74.375 L84.897,73.846 L84.985,74.239 C86.748,73.844 88.318,71.917 89.695,68.457 L89.726,67.587 C86.911,71.669 84.956,73.832 83.860,74.078 ZM92.509,60.735 C92.080,60.831 91.873,61.528 91.888,62.825 C92.054,62.788 92.291,62.222 92.597,61.128 L92.509,60.735 ZM94.448,55.985 C94.231,56.134 93.723,58.337 92.924,62.593 C93.282,62.513 93.805,60.383 94.496,56.200 L94.448,55.985 ZM95.077,53.931 C94.802,54.043 94.688,54.206 94.736,54.420 L94.784,54.634 C95.070,54.570 95.184,54.408 95.125,54.145 L95.077,53.931 ZM95.574,51.456 L95.526,51.241 L95.311,51.289 L95.317,52.151 C95.579,52.092 95.665,51.861 95.574,51.456 ZM96.011,48.543 C95.781,49.420 95.686,49.942 95.723,50.109 L95.771,50.323 L95.950,50.283 C95.923,50.164 96.031,49.640 96.273,48.710 L96.225,48.495 L96.011,48.543 ZM96.770,46.235 L96.556,46.283 C96.614,46.545 96.518,47.067 96.268,47.848 L96.316,48.062 L96.530,48.014 C96.408,47.467 96.549,47.147 96.954,47.057 L96.770,46.235 ZM83.095,27.378 L83.047,27.164 C83.031,26.867 83.142,26.693 83.380,26.639 L83.524,27.282 L83.095,27.378 ZM83.915,20.140 L85.655,20.201 L85.743,20.594 L84.313,20.914 C82.919,21.727 82.246,22.240 82.294,22.454 L82.723,22.358 L82.858,22.966 L82.644,23.014 C82.501,23.046 82.414,22.990 82.382,22.847 L82.037,23.150 L78.784,23.877 C77.612,24.565 75.620,25.223 72.809,25.852 L72.416,25.940 C72.522,26.192 72.683,26.293 72.897,26.245 L75.327,25.701 C76.291,25.536 76.799,25.572 76.853,25.810 C76.996,25.778 77.051,25.691 77.019,25.548 L79.497,25.219 L80.105,25.083 L80.193,25.476 L75.511,26.523 C74.963,26.646 74.241,26.883 73.343,27.233 L72.867,27.115 C71.516,27.567 70.449,27.881 69.662,28.057 L67.840,28.465 C67.530,28.534 67.269,28.655 67.058,28.827 C66.938,28.854 66.866,28.808 66.839,28.688 C64.126,29.421 59.199,30.660 52.060,32.407 C51.830,32.609 51.644,32.726 51.501,32.758 C51.254,32.663 50.904,32.666 50.452,32.767 L50.059,32.855 L48.856,33.349 C48.736,33.376 48.661,33.318 48.629,33.175 L47.248,33.709 L42.781,34.708 C42.471,34.778 42.210,34.899 41.999,35.071 L41.565,34.980 C40.469,35.226 39.692,37.176 39.234,40.831 C38.945,41.534 38.487,43.160 37.867,45.666 C39.418,43.702 41.188,41.844 43.241,40.122 C46.654,38.383 48.220,36.882 47.938,35.619 L48.319,35.308 L48.533,35.260 L48.414,35.737 L48.614,36.631 C50.422,35.876 51.264,35.225 51.142,34.677 L52.512,34.595 C54.672,33.962 56.681,33.438 58.540,33.022 L58.754,32.974 C61.613,32.334 65.377,33.169 70.046,35.476 C71.136,36.658 71.923,37.771 72.406,38.813 L72.894,40.993 C73.089,44.102 72.795,46.532 72.011,48.283 C71.519,48.994 70.471,51.130 68.866,54.691 L68.652,54.739 L68.556,54.310 L69.007,53.309 L68.578,53.404 C64.455,58.905 59.400,63.539 53.412,67.305 C51.888,68.096 50.340,68.667 48.767,69.019 C51.379,70.962 55.869,73.310 62.239,76.062 C62.869,76.197 66.849,77.658 74.177,80.447 C80.255,82.564 87.453,84.769 95.771,87.061 L95.819,87.276 L94.926,87.476 C93.374,87.247 92.576,87.038 92.534,86.848 L92.125,87.202 L91.696,87.298 C91.553,87.330 91.463,87.262 91.426,87.095 C90.909,87.361 90.595,87.969 90.483,88.920 C91.405,89.014 91.898,89.204 91.962,89.490 C91.673,89.879 91.422,90.098 91.208,90.146 L90.044,90.144 L90.100,90.394 C90.164,90.680 90.422,90.772 90.875,90.671 L91.019,91.314 L90.804,91.362 C90.470,91.437 86.785,90.285 79.749,87.906 C74.840,86.653 68.705,84.448 61.345,81.291 C59.053,80.778 54.583,78.801 47.934,75.360 L47.255,75.512 C46.714,77.009 46.329,80.372 46.098,85.603 C46.073,86.834 44.993,88.827 42.857,91.581 L42.428,91.677 L41.856,91.130 L41.808,90.915 C41.728,90.558 41.796,89.855 42.011,88.806 L41.963,88.591 L41.749,88.639 C41.786,89.032 41.063,89.881 39.580,91.189 L39.365,91.237 L39.261,90.772 C40.962,74.555 42.308,63.910 43.299,58.834 C44.992,50.075 45.708,45.111 45.447,43.944 C44.661,44.120 43.148,45.522 40.909,48.149 L40.480,48.245 L40.598,47.768 L40.503,47.339 C39.752,47.507 38.387,49.009 36.423,51.809 C35.417,56.241 34.177,61.951 32.696,68.974 C32.734,69.141 32.446,70.707 31.833,73.671 C32.004,74.433 31.566,75.944 30.521,78.205 L30.795,78.594 C30.420,78.928 30.257,80.102 30.308,82.118 L30.129,82.157 L30.033,81.729 L29.819,81.777 L30.003,82.599 C29.740,82.657 29.732,83.235 29.977,84.330 L29.763,84.378 L29.286,84.260 L27.416,93.009 C27.292,93.688 27.093,94.082 26.817,94.194 L26.639,94.234 C26.353,94.298 26.181,94.198 26.122,93.937 L27.601,89.140 L27.457,88.497 C27.314,88.529 27.098,88.515 26.809,88.454 C26.147,91.980 25.487,94.116 24.828,94.864 L24.650,94.904 C24.364,94.968 24.191,94.869 24.133,94.607 L23.172,95.009 L22.743,95.105 L22.567,94.319 L23.036,94.402 L23.254,93.527 L22.843,92.531 L23.174,90.318 C22.840,90.393 22.576,90.164 22.382,89.632 C24.818,76.929 26.418,68.816 27.182,65.292 C27.112,64.983 28.631,57.738 31.739,43.558 C31.563,42.772 31.978,40.828 32.986,37.725 C32.938,37.511 32.547,37.386 31.813,37.350 L24.190,39.505 L23.749,39.379 C19.805,40.537 12.293,42.579 1.216,45.508 L0.905,45.127 C0.895,44.854 0.996,44.694 1.211,44.646 L2.247,44.414 C2.914,44.265 3.911,43.967 5.237,43.520 L5.149,43.127 C4.920,42.103 3.739,41.579 1.607,41.555 L1.471,40.948 C4.613,39.670 7.673,38.697 10.651,38.031 L10.563,37.638 C9.872,37.793 9.497,37.739 9.439,37.477 L9.343,37.048 L12.202,36.408 C12.511,36.339 12.769,36.206 12.976,36.010 C13.222,36.105 13.500,36.118 13.810,36.048 L14.417,35.913 L14.369,35.698 L12.292,35.975 L11.685,36.111 C11.279,36.202 11.091,36.307 11.117,36.426 L10.077,36.471 L8.433,36.839 C5.204,37.837 3.410,38.375 3.053,38.455 L2.488,37.943 C2.826,37.442 4.067,36.952 6.212,36.472 L19.042,33.602 C19.351,33.533 19.609,33.400 19.816,33.204 L20.257,33.330 C25.537,31.999 28.487,31.202 29.103,30.938 C29.246,30.906 29.462,30.921 29.751,30.981 C32.178,30.313 36.079,29.303 41.456,27.950 C41.445,27.677 41.559,27.514 41.797,27.461 L41.976,27.421 L42.707,27.670 L43.493,27.494 C44.279,27.318 44.772,27.283 44.971,27.389 C45.653,27.086 46.317,26.863 46.960,26.719 C49.056,26.250 52.292,25.451 56.668,24.322 L57.057,24.047 C57.346,24.108 57.562,24.122 57.705,24.090 C57.824,24.063 57.870,23.991 57.843,23.871 L58.705,23.866 C60.206,23.530 61.940,23.005 63.907,22.290 L64.776,22.320 C65.912,21.916 66.909,21.618 67.766,21.426 L68.159,21.338 C68.445,21.274 68.634,21.445 68.724,21.850 L74.192,20.627 C74.978,20.451 76.078,20.280 77.492,20.113 L77.873,19.803 L79.136,19.746 C79.779,19.602 80.442,19.378 81.125,19.075 L81.995,19.106 C82.844,18.766 83.710,18.497 84.592,18.300 L84.770,18.260 C85.080,18.191 85.370,18.201 85.640,18.291 C85.870,18.089 86.057,17.972 86.200,17.940 L86.248,18.155 L86.593,17.852 L87.629,17.620 C88.082,17.519 88.432,17.516 88.678,17.611 L89.881,17.117 L90.881,16.893 L91.930,16.883 L92.018,17.277 L84.906,18.868 C84.192,19.478 83.862,19.902 83.915,20.140 ZM70.057,37.538 L70.009,37.323 C69.945,37.037 69.770,36.926 69.484,36.990 L69.532,37.205 C69.644,37.480 69.819,37.591 70.057,37.538 ZM69.055,45.305 C69.270,45.257 69.433,44.983 69.547,44.482 L69.499,44.267 L69.284,44.315 C69.009,44.427 68.898,44.602 68.951,44.840 L69.055,45.305 ZM89.231,88.524 L89.350,88.048 C87.318,87.351 85.455,86.855 83.763,86.558 L83.334,86.654 C84.707,87.422 86.672,88.046 89.231,88.524 ZM68.945,82.555 L69.160,82.507 L69.112,82.293 C68.778,82.368 68.298,82.237 67.673,81.902 L67.423,81.958 C67.723,82.516 68.230,82.715 68.945,82.555 ZM60.166,79.041 C62.794,80.279 64.371,80.839 64.895,80.722 C64.214,80.474 63.834,80.171 63.754,79.814 L60.070,78.612 L60.166,79.041 ZM64.650,48.091 L64.865,48.043 L64.913,48.258 C64.733,48.799 64.673,49.200 64.732,49.462 L64.946,49.414 C66.503,47.540 67.087,45.733 66.698,43.993 L66.402,42.671 C65.973,42.767 65.727,42.672 65.663,42.386 C66.369,42.078 66.659,41.638 66.531,41.066 C66.360,40.304 64.744,39.902 61.683,39.861 C59.220,39.812 56.619,40.094 53.879,40.707 C52.473,41.021 51.659,43.868 51.437,49.246 C51.003,49.994 50.094,54.763 48.708,63.554 L48.923,63.506 C51.402,62.401 52.614,61.667 52.558,61.304 C52.332,61.079 52.201,60.884 52.164,60.717 C57.294,57.593 60.578,54.882 62.015,52.584 C62.205,52.541 63.084,51.044 64.650,48.091 ZM55.700,61.089 L55.485,61.137 C52.463,62.614 50.212,63.793 48.734,64.674 L48.781,64.888 L49.210,64.792 C49.464,64.585 49.663,64.466 49.806,64.434 L49.854,64.648 C53.241,63.240 55.189,62.054 55.700,61.089 ZM48.578,66.998 L52.281,65.268 L51.971,64.888 C49.425,65.808 48.211,66.530 48.328,67.054 L48.578,66.998 ZM48.532,48.507 C48.929,48.269 49.047,47.792 48.887,47.077 C48.649,47.130 48.459,47.623 48.317,48.555 L48.532,48.507 ZM47.232,44.708 C47.446,44.660 47.610,44.386 47.723,43.885 L47.675,43.671 C47.461,43.719 47.294,43.981 47.176,44.458 L47.232,44.708 ZM27.342,85.971 L27.399,87.234 C27.637,87.181 27.749,86.730 27.735,85.883 L27.342,85.971 ZM34.073,59.698 C34.335,59.639 34.437,59.479 34.378,59.216 L34.331,59.002 L33.937,59.090 L34.073,59.698 ZM33.619,61.525 C33.881,61.467 33.967,61.235 33.876,60.830 L33.828,60.615 L33.614,60.663 L33.619,61.525 ZM6.809,39.979 L5.593,40.251 C3.966,40.690 3.189,41.076 3.263,41.410 C3.406,41.378 3.625,41.404 3.919,41.488 C4.149,41.287 4.336,41.170 4.479,41.138 L4.527,41.352 C5.598,40.662 6.372,40.264 6.849,40.158 L6.809,39.979 ZM15.366,35.288 L14.758,35.423 L14.846,35.817 C15.076,35.615 15.263,35.498 15.406,35.466 L15.366,35.288 ZM8.222,42.440 C8.305,42.697 8.465,42.798 8.703,42.745 L9.311,42.609 C10.669,42.305 12.344,41.855 14.338,41.259 L15.207,41.290 C16.274,40.801 18.123,40.175 20.754,39.411 L22.231,39.306 C24.153,38.726 25.205,38.340 25.388,38.149 C25.657,38.239 25.948,38.249 26.257,38.180 L26.603,37.877 C26.746,37.845 26.833,37.901 26.865,38.044 C27.008,38.012 27.194,37.895 27.425,37.693 L28.902,37.588 C30.014,37.189 30.939,36.907 31.677,36.742 L31.637,36.563 L30.803,36.525 C30.493,36.594 30.235,36.727 30.029,36.923 C29.258,36.945 28.635,37.010 28.159,37.116 C28.016,37.148 27.829,37.265 27.599,37.467 C27.456,37.499 27.369,37.443 27.337,37.300 L26.384,37.739 L16.199,40.017 C15.317,40.214 12.658,41.022 8.222,42.440 ZM32.322,31.907 L28.677,32.723 C28.367,32.792 28.109,32.925 27.903,33.121 C27.760,33.153 27.672,33.097 27.640,32.954 C24.599,33.785 22.143,34.547 20.271,35.241 L20.231,35.062 L19.842,35.337 L17.805,35.793 L18.116,36.173 L19.104,35.727 C21.820,35.120 26.993,33.750 34.621,31.618 L34.704,31.149 L32.322,31.907 ZM35.227,52.610 C35.296,52.920 35.298,53.207 35.232,53.472 L35.411,53.432 C35.697,53.368 35.811,53.205 35.752,52.943 C35.688,52.657 35.513,52.546 35.227,52.610 ZM36.736,46.943 L36.558,46.983 C36.585,47.103 36.589,47.217 36.592,47.331 C36.648,47.251 36.714,47.175 36.770,47.095 L36.736,46.943 ZM37.335,47.866 C37.161,48.599 36.974,49.401 36.781,50.243 L37.775,48.400 L38.060,47.660 L38.012,47.446 L37.583,47.542 L37.335,47.866 ZM37.635,42.239 L37.731,42.668 L38.124,42.580 C38.055,42.271 38.065,41.980 38.155,41.710 L37.941,41.758 C37.689,41.865 37.587,42.025 37.635,42.239 ZM38.019,41.102 L38.067,41.317 L38.246,41.277 C38.214,41.134 38.240,40.916 38.324,40.621 L38.276,40.407 L38.062,40.455 C38.094,40.598 38.079,40.814 38.019,41.102 ZM38.716,36.669 C38.606,37.744 38.440,38.569 38.219,39.144 L38.307,39.537 C38.759,39.436 39.039,38.448 39.145,36.573 L38.716,36.669 ZM71.428,26.386 L69.605,26.794 L69.645,26.972 L71.468,26.565 L71.428,26.386 ZM29.454,87.862 L29.061,87.950 L29.043,86.866 L29.437,86.778 L29.454,87.862 ZM97.250,87.631 C96.964,87.695 96.869,87.942 96.965,88.371 L96.536,88.466 L96.654,87.990 L96.606,87.775 L96.178,87.871 L96.082,87.442 L96.725,87.298 C97.021,87.282 97.196,87.393 97.250,87.631 ZM103.171,36.434 C103.097,37.001 102.954,37.308 102.739,37.356 L102.652,36.963 C102.743,36.367 102.884,36.048 103.075,36.005 L103.171,36.434 ZM114.491,88.878 L123.282,86.911 L123.402,87.447 L112.966,89.782 L112.911,89.532 L113.069,88.896 L114.491,88.878 ZM125.582,86.960 L124.474,87.207 L124.354,86.671 L125.462,86.424 L125.582,86.960 ZM173.524,74.808 L172.452,75.048 C172.261,75.091 172.145,75.017 172.102,74.826 C171.692,75.118 170.817,75.514 169.478,76.014 L169.064,75.506 L169.008,75.256 L173.404,74.272 L173.524,74.808 ZM192.033,68.641 C192.198,69.380 187.549,70.907 178.086,73.225 L176.748,73.787 L176.692,73.537 L176.212,73.907 L174.854,74.211 L174.734,73.675 C176.735,73.227 182.483,71.466 191.977,68.391 L192.033,68.641 ZM195.385,68.192 L193.991,68.503 L193.871,67.967 L195.265,67.656 L195.385,68.192 Z"/>
</svg>